<svg xmlns="http://www.w3.org/2000/svg" viewBox="0 0 240 240" role="img" aria-labelledby="title desc">
  <title id="title">Scout the goldendoodle mascot</title>
  <desc id="desc">A warm flat vector illustration of Scout, a fluffy golden-amber goldendoodle sitting upright with a green bandana.</desc>
  <defs>
    <filter id="softShadow" x="-20%" y="-20%" width="140%" height="150%">
      <feDropShadow dx="0" dy="8" stdDeviation="8" flood-color="#3D2008" flood-opacity="0.16"/>
    </filter>
  </defs>
  <ellipse cx="120" cy="218" rx="68" ry="12" fill="#3D2008" opacity="0.12"/>
  <g filter="url(#softShadow)">
    <ellipse cx="82" cy="138" rx="24" ry="60" fill="#B8860B" transform="rotate(-12 82 138)"/>
    <ellipse cx="158" cy="138" rx="24" ry="60" fill="#B8860B" transform="rotate(12 158 138)"/>
    <ellipse cx="120" cy="149" rx="58" ry="64" fill="#D4A045"/>
    <circle cx="83" cy="88" r="23" fill="#D4A045"/>
    <circle cx="103" cy="70" r="25" fill="#E8C56A"/>
    <circle cx="130" cy="66" r="27" fill="#E8C56A"/>
    <circle cx="154" cy="83" r="24" fill="#D4A045"/>
    <circle cx="120" cy="98" r="52" fill="#D4A045"/>
    <circle cx="98" cy="92" r="24" fill="#E8C56A"/>
    <circle cx="123" cy="84" r="28" fill="#E8C56A"/>
    <circle cx="145" cy="98" r="23" fill="#E8C56A"/>
    <circle cx="102" cy="113" r="27" fill="#E8C56A"/>
    <circle cx="138" cy="113" r="28" fill="#E8C56A"/>
    <circle cx="120" cy="119" r="32" fill="#E8C56A"/>
    <circle cx="92" cy="78" r="11" fill="#D4A045" opacity="0.85"/>
    <circle cx="113" cy="58" r="12" fill="#E8C56A"/>
    <circle cx="143" cy="69" r="12" fill="#D4A045" opacity="0.85"/>
    <circle cx="74" cy="117" r="15" fill="#B8860B" opacity="0.9"/>
    <circle cx="166" cy="117" r="15" fill="#B8860B" opacity="0.9"/>
    <circle cx="99" cy="103" r="7" fill="#2C1A0A"/>
    <circle cx="141" cy="103" r="7" fill="#2C1A0A"/>
    <circle cx="101" cy="101" r="2.2" fill="#FFFFFF"/>
    <circle cx="143" cy="101" r="2.2" fill="#FFFFFF"/>
    <ellipse cx="120" cy="122" rx="9" ry="7" fill="#3D2008"/>
    <path d="M111 136c6 6 12 6 18 0" fill="none" stroke="#3D2008" stroke-width="4" stroke-linecap="round"/>
    <path d="M78 158c13 19 29 29 42 29s29-10 42-29c-9 9-24 14-42 14s-33-5-42-14z" fill="#20ba39"/>
    <path d="M96 174h48v23c0 8-7 14-15 14h-18c-8 0-15-6-15-14z" fill="#20ba39"/>
    <text x="120" y="193" text-anchor="middle" font-family="Outfit, Arial, sans-serif" font-size="14" font-weight="800" fill="#FFFFFF">SCOUT</text>
    <circle cx="73" cy="191" r="23" fill="#D4A045"/>
    <circle cx="167" cy="191" r="23" fill="#D4A045"/>
    <ellipse cx="95" cy="200" rx="23" ry="16" fill="#E8C56A"/>
    <ellipse cx="145" cy="200" rx="23" ry="16" fill="#E8C56A"/>
    <circle cx="68" cy="178" r="9" fill="#E8C56A"/>
    <circle cx="172" cy="178" r="9" fill="#E8C56A"/>
    <circle cx="91" cy="158" r="10" fill="#B8860B" opacity="0.55"/>
    <circle cx="153" cy="158" r="10" fill="#B8860B" opacity="0.55"/>
    <circle cx="122" cy="153" r="8" fill="#E8C56A" opacity="0.8"/>
  </g>
</svg>
